<?xml version="1.0" encoding="UTF-8" standalone="no"?>
<svg
   aria-hidden="true"
   focusable="false"
   data-prefix="fas"
   data-icon="plus-circle"
   class="svg-inline--fa fa-plus-circle fa-w-16"
   role="img"
   viewBox="0 0 512 512"
   version="1.1"
   id="svg4"
   sodipodi:docname="plus-circle-solid.svg"
   inkscape:version="1.1 (ce6663b3b7, 2021-05-25)"
   xmlns:inkscape="http://www.inkscape.org/namespaces/inkscape"
   xmlns:sodipodi="http://sodipodi.sourceforge.net/DTD/sodipodi-0.dtd"
   xmlns="http://www.w3.org/2000/svg"
   xmlns:svg="http://www.w3.org/2000/svg">
  <defs
     id="defs8" />
  <sodipodi:namedview
     id="namedview6"
     pagecolor="#505050"
     bordercolor="#eeeeee"
     borderopacity="1"
     inkscape:pageshadow="0"
     inkscape:pageopacity="0"
     inkscape:pagecheckerboard="0"
     showgrid="false"
     inkscape:zoom="0.921875"
     inkscape:cx="255.45763"
     inkscape:cy="256"
     inkscape:window-width="1280"
     inkscape:window-height="656"
     inkscape:window-x="1366"
     inkscape:window-y="0"
     inkscape:window-maximized="1"
     inkscape:current-layer="svg4" />
  <path
     style="fill:#ffffeb;fill-opacity:1"
     id="path869"
     sodipodi:type="arc"
     sodipodi:cx="259.63342"
     sodipodi:cy="260.1944"
     sodipodi:rx="179.30608"
     sodipodi:ry="154.914"
     sodipodi:start="0"
     sodipodi:end="6.279363"
     sodipodi:arc-type="slice"
     d="M 438.9395,260.1944 A 179.30608,154.914 0 0 1 259.80476,415.10833 179.30608,154.914 0 0 1 80.327674,260.49046 179.30608,154.914 0 0 1 259.11941,105.28103 179.30608,154.914 0 0 1 438.93819,259.60228 l -179.30477,0.59212 z" />
  <path
     fill="currentColor"
     d="M256 8C119 8 8 119 8 256s111 248 248 248 248-111 248-248S393 8 256 8zm144 276c0 6.6-5.4 12-12 12h-92v92c0 6.6-5.4 12-12 12h-56c-6.6 0-12-5.4-12-12v-92h-92c-6.6 0-12-5.4-12-12v-56c0-6.6 5.4-12 12-12h92v-92c0-6.6 5.4-12 12-12h56c6.6 0 12 5.4 12 12v92h92c6.6 0 12 5.4 12 12v56z"
     id="path2"
     style="fill:#ef9002;fill-opacity:1" />
</svg>
